<svg xmlns="http://www.w3.org/2000/svg" version="1.1" xmlns:xlink="http://www.w3.org/1999/xlink" xmlns:svgjs="http://svgjs.com/svgjs" width="100%" height="100%"><svg width="100%" height="100%" viewBox="0 0 971 796" version="1.1" xmlns="http://www.w3.org/2000/svg" xmlns:xlink="http://www.w3.org/1999/xlink" xml:space="preserve" xmlns:serif="http://www.serif.com/" style="fill-rule:evenodd;clip-rule:evenodd;stroke-linecap:round;stroke-linejoin:round;stroke-miterlimit:1.5;">
    <g transform="matrix(1,0,0,1,-83.8725,-86.7624)">
        <g transform="matrix(1,0,0,1,-163.504,-1370.81)">
            <g id="SvgjsG1000">
                <g transform="matrix(1.22723,0,0,1.22699,-2143.07,1209.55)">
                    <circle cx="2338.95" cy="526.155" r="266.289" style="fill:none;stroke:rgb(227,32,23);stroke-width:115.45px;"></circle>
                </g>
                <g transform="matrix(1.27328,0,0,1.30764,-2238.52,1156.83)">
                    <rect x="1952.35" y="471.935" width="762.506" height="122.75" style="fill:rgb(0,9,171);"></rect>
                </g>
                <g transform="matrix(1.27328,0,0,1.27328,-2422.88,1232.68)">
                    <g transform="matrix(98.1715,0,0,98.1715,2162.46,523.831)">
                        <path d="M0.741,-0L0.741,-0.699L0.641,-0.699L0.396,-0.4L0.151,-0.699L0.051,-0.699L0.051,-0L0.149,-0L0.149,-0.544L0.396,-0.242L0.643,-0.544L0.643,-0L0.741,-0Z" style="fill:white;fill-rule:nonzero;"></path>
                    </g>
                    <g transform="matrix(98.1715,0,0,98.1715,2240.01,523.831)">
                        <path d="M0.665,0.001L0.373,-0.7L0.304,-0.7L0.012,0.001L0.122,0.001L0.19,-0.171L0.487,-0.171L0.555,0.001L0.665,0.001ZM0.443,-0.27L0.234,-0.27L0.339,-0.524L0.443,-0.27Z" style="fill:white;fill-rule:nonzero;"></path>
                    </g>
                    <g transform="matrix(98.1715,0,0,98.1715,2306.28,523.831)">
                        <path d="M0.599,-0L0.239,-0.386L0.575,-0.682L0.441,-0.682L0.151,-0.427L0.151,-0.7L0.051,-0.7L0.051,-0L0.149,-0L0.149,-0.336L0.465,-0L0.599,-0Z" style="fill:white;fill-rule:nonzero;"></path>
                    </g>
                    <g transform="matrix(98.1715,0,0,98.1715,2366.16,523.831)">
                        <path d="M0.491,-0L0.491,-0.102L0.151,-0.102L0.151,-0.325L0.394,-0.325L0.394,-0.425L0.151,-0.425L0.151,-0.6L0.471,-0.6L0.471,-0.7L0.051,-0.7L0.051,-0L0.491,-0Z" style="fill:white;fill-rule:nonzero;"></path>
                    </g>
                    <g transform="matrix(98.1715,0,0,98.1715,2416.72,523.831)">
                        <path d="M0.344,-0.501C0.344,-0.487 0.342,-0.474 0.337,-0.462C0.332,-0.449 0.326,-0.438 0.318,-0.429C0.31,-0.42 0.301,-0.412 0.291,-0.407C0.28,-0.402 0.269,-0.399 0.258,-0.399L0.151,-0.399L0.151,-0.6L0.227,-0.6C0.242,-0.6 0.257,-0.597 0.272,-0.592C0.286,-0.587 0.298,-0.58 0.309,-0.571C0.32,-0.562 0.328,-0.551 0.335,-0.539C0.341,-0.527 0.344,-0.514 0.344,-0.501ZM0.568,-0.003L0.349,-0.322C0.379,-0.342 0.403,-0.367 0.421,-0.398C0.439,-0.429 0.448,-0.463 0.448,-0.501C0.448,-0.528 0.442,-0.553 0.431,-0.578C0.42,-0.602 0.405,-0.623 0.386,-0.641C0.367,-0.659 0.344,-0.673 0.319,-0.684C0.294,-0.695 0.267,-0.7 0.239,-0.7L0.051,-0.7L0.051,-0L0.151,-0L0.151,-0.295L0.243,-0.295L0.446,-0.003L0.568,-0.003Z" style="fill:white;fill-rule:nonzero;"></path>
                    </g>
                    <g transform="matrix(98.1715,0,0,98.1715,2473.66,523.831)">
                        <path d="M0.431,-0.211C0.431,-0.252 0.424,-0.286 0.409,-0.312C0.394,-0.337 0.375,-0.358 0.352,-0.375C0.329,-0.391 0.305,-0.404 0.279,-0.414C0.253,-0.423 0.229,-0.433 0.206,-0.442C0.183,-0.451 0.165,-0.462 0.15,-0.474C0.135,-0.486 0.127,-0.503 0.127,-0.524C0.127,-0.545 0.135,-0.563 0.15,-0.578C0.165,-0.593 0.183,-0.6 0.204,-0.6C0.215,-0.6 0.225,-0.598 0.235,-0.595C0.245,-0.591 0.254,-0.586 0.262,-0.58C0.269,-0.573 0.275,-0.566 0.28,-0.558C0.285,-0.549 0.288,-0.54 0.289,-0.531L0.379,-0.595C0.364,-0.626 0.341,-0.651 0.31,-0.671C0.279,-0.69 0.243,-0.7 0.204,-0.7C0.177,-0.7 0.153,-0.695 0.132,-0.686C0.11,-0.677 0.091,-0.664 0.076,-0.648C0.06,-0.632 0.048,-0.613 0.04,-0.592C0.031,-0.571 0.027,-0.548 0.027,-0.524C0.026,-0.487 0.033,-0.457 0.048,-0.434C0.063,-0.411 0.081,-0.393 0.104,-0.378C0.126,-0.363 0.15,-0.351 0.177,-0.342C0.204,-0.333 0.228,-0.323 0.251,-0.312C0.274,-0.301 0.293,-0.288 0.308,-0.273C0.323,-0.258 0.331,-0.237 0.331,-0.211C0.331,-0.196 0.328,-0.181 0.322,-0.168C0.316,-0.155 0.308,-0.143 0.298,-0.133C0.287,-0.123 0.275,-0.115 0.261,-0.109C0.247,-0.103 0.232,-0.1 0.217,-0.1C0.185,-0.1 0.157,-0.109 0.134,-0.127C0.111,-0.145 0.096,-0.168 0.091,-0.195L0.003,-0.141C0.019,-0.099 0.046,-0.065 0.085,-0.039C0.123,-0.013 0.167,-0 0.217,-0C0.246,-0 0.274,-0.006 0.3,-0.017C0.326,-0.028 0.349,-0.043 0.368,-0.062C0.387,-0.081 0.403,-0.104 0.414,-0.129C0.425,-0.154 0.431,-0.182 0.431,-0.211Z" style="fill:white;fill-rule:nonzero;"></path>
                    </g>
                    <g transform="matrix(98.1715,0,0,98.1715,2540.71,523.831)">
                        <path d="M0.679,-0.063L0.679,-0.393L0.455,-0.393L0.455,-0.293L0.579,-0.293L0.579,-0.122C0.526,-0.097 0.467,-0.085 0.402,-0.085C0.365,-0.085 0.33,-0.092 0.297,-0.107C0.264,-0.122 0.236,-0.142 0.212,-0.167C0.187,-0.192 0.168,-0.222 0.154,-0.256C0.139,-0.29 0.132,-0.326 0.132,-0.365C0.132,-0.399 0.139,-0.431 0.153,-0.462C0.167,-0.492 0.186,-0.518 0.211,-0.541C0.235,-0.564 0.263,-0.582 0.296,-0.595C0.329,-0.608 0.363,-0.615 0.4,-0.615C0.454,-0.615 0.504,-0.607 0.551,-0.59C0.597,-0.573 0.636,-0.55 0.667,-0.523L0.667,-0.643C0.628,-0.666 0.586,-0.683 0.541,-0.696C0.495,-0.709 0.447,-0.715 0.397,-0.715C0.347,-0.715 0.3,-0.706 0.256,-0.687C0.211,-0.668 0.173,-0.643 0.14,-0.612C0.107,-0.58 0.08,-0.543 0.061,-0.501C0.042,-0.458 0.032,-0.413 0.032,-0.365C0.032,-0.313 0.042,-0.264 0.061,-0.218C0.08,-0.171 0.107,-0.131 0.14,-0.097C0.173,-0.062 0.211,-0.035 0.256,-0.015C0.3,0.005 0.347,0.015 0.397,0.015C0.45,0.015 0.5,0.008 0.548,-0.006C0.595,-0.019 0.639,-0.038 0.679,-0.063Z" style="fill:white;fill-rule:nonzero;"></path>
                    </g>
                    <g transform="matrix(98.1715,0,0,98.1715,2611.4,523.831)">
                        <path d="M0.344,-0.501C0.344,-0.487 0.342,-0.474 0.337,-0.462C0.332,-0.449 0.326,-0.438 0.318,-0.429C0.31,-0.42 0.301,-0.412 0.291,-0.407C0.28,-0.402 0.269,-0.399 0.258,-0.399L0.151,-0.399L0.151,-0.6L0.227,-0.6C0.242,-0.6 0.257,-0.597 0.272,-0.592C0.286,-0.587 0.298,-0.58 0.309,-0.571C0.32,-0.562 0.328,-0.551 0.335,-0.539C0.341,-0.527 0.344,-0.514 0.344,-0.501ZM0.568,-0.003L0.349,-0.322C0.379,-0.342 0.403,-0.367 0.421,-0.398C0.439,-0.429 0.448,-0.463 0.448,-0.501C0.448,-0.528 0.442,-0.553 0.431,-0.578C0.42,-0.602 0.405,-0.623 0.386,-0.641C0.367,-0.659 0.344,-0.673 0.319,-0.684C0.294,-0.695 0.267,-0.7 0.239,-0.7L0.051,-0.7L0.051,-0L0.151,-0L0.151,-0.295L0.243,-0.295L0.446,-0.003L0.568,-0.003Z" style="fill:white;fill-rule:nonzero;"></path>
                    </g>
                    <g transform="matrix(98.1715,0,0,98.1715,2668.34,523.831)">
                        <path d="M0.665,0.001L0.373,-0.7L0.304,-0.7L0.012,0.001L0.122,0.001L0.19,-0.171L0.487,-0.171L0.555,0.001L0.665,0.001ZM0.443,-0.27L0.234,-0.27L0.339,-0.524L0.443,-0.27Z" style="fill:white;fill-rule:nonzero;"></path>
                    </g>
                    <g transform="matrix(98.1715,0,0,98.1715,2734.6,523.831)">
                        <rect x="0.05" y="-0.7" width="0.1" height="0.7" style="fill:white;fill-rule:nonzero;"></rect>
                    </g>
                    <g transform="matrix(98.1715,0,0,98.1715,2754.24,523.831)">
                        <path d="M0.469,-0.001L0.469,-0.101L0.151,-0.101L0.151,-0.701L0.051,-0.701L0.051,-0.001L0.469,-0.001Z" style="fill:white;fill-rule:nonzero;"></path>
                    </g>
                </g>
            </g>
        </g>
    </g>
</svg><style>@media (prefers-color-scheme: light) { :root { filter: none; } }
</style></svg>