<?xml version="1.0" encoding="UTF-8" standalone="no"?>
<!DOCTYPE svg PUBLIC "-//W3C//DTD SVG 1.1//EN" "http://www.w3.org/Graphics/SVG/1.1/DTD/svg11.dtd">
<svg width="100%" height="100%" viewBox="0 0 2703 1030" version="1.1" xmlns="http://www.w3.org/2000/svg" xmlns:xlink="http://www.w3.org/1999/xlink" xml:space="preserve" xmlns:serif="http://www.serif.com/" style="fill-rule:evenodd;clip-rule:evenodd;stroke-linejoin:round;stroke-miterlimit:1.5;">
    <g transform="matrix(1,0,0,1,-1981.11,-1175.62)">
        <g transform="matrix(5.76952,0,0,1,-20877.7,-82.9735)">
            <path d="M4375.79,1676.39L4000.06,1676.39" style="fill:none;stroke:rgb(179,99,5);stroke-width:10.06px;"/>
        </g>
        <g transform="matrix(5.91453,0,0,1,-22198.4,-15.4868)">
            <path d="M4513.63,1646.87L4482.68,1646.87C4476.88,1646.87 4471.34,1661.45 4467.46,1686.99C4455.06,1768.51 4426.5,1956.34 4407.59,2080.74C4396.04,2156.68 4379.51,2199.46 4362.24,2198.09C4345.76,2196.78 4327.88,2195.37 4327.88,2195.37" style="fill:none;stroke:rgb(160,165,169);stroke-width:9.82px;"/>
        </g>
        <a href="https://www.makersgrail.com/silversmithing/course/2023/08/09/silver-spoon.html">
        <g transform="matrix(0.707107,-0.707107,0.707107,0.707107,607.489,2360.14)">
            <g transform="matrix(50,0,0,50,3551.81,2214.32)">
            </g>
            <text x="3331.06px" y="2214.32px" style="font-family:'Railway';font-size:50px;fill:rgb(0,9,171);">Tea Spoon</text>
        </g>
        </a>
        <a href="https://www.makersgrail.com/whisky/silversmithing/course/2023/08/08/whisky-tumbler.html">
        <g transform="matrix(0.707107,-0.707107,0.707107,0.707107,466.334,2313.16)">
            <g transform="matrix(50,0,0,50,3608.86,2214.32)">
            </g>
            <text x="3331.06px" y="2214.32px" style="font-family:'Railway';font-size:50px;fill:rgb(0,9,171);">Whisky Grail</text>
        </g>
        </a>
        <a href="https://www.makersgrail.com/sewing/bags/2023/07/03/Jewellery-tool-bag.html">
        <g transform="matrix(0.707107,0.707107,-0.707107,0.707107,3377.89,-2068.75)">
            <g transform="matrix(50,0,0,50,3516.36,2214.32)">
            </g>
            <text x="3331.06px" y="2214.32px" style="font-family:'Railway';font-size:50px;fill:rgb(0,9,171);">Tool Bag</text>
        </g>
        </a>
        <g transform="matrix(0.707107,0.707107,-0.707107,0.707107,2826.1,-2076.38)">
            <text x="3331.06px" y="2214.32px" style="font-family:'Railway';font-size:50px;fill:rgb(0,9,171);">Chainsaw</text>
            <g transform="matrix(50,0,0,50,3404.71,2265.42)">
            </g>
            <text x="3331.06px" y="2265.42px" style="font-family:'Railway';font-size:50px;fill:rgb(0,9,171);">Bag</text>
        </g>
        <g transform="matrix(0.707107,-0.707107,0.707107,0.707107,178.462,2274.02)">
            <g transform="matrix(50,0,0,50,3589.21,2214.32)">
            </g>
            <text x="3331.06px" y="2214.32px" style="font-family:'Railway';font-size:50px;fill:rgb(0,9,171);">Dipping Dog</text>
        </g>
        <g transform="matrix(0.707107,-0.707107,0.707107,0.707107,-54.0266,2265.39)">
            <text x="3331.06px" y="2214.32px" style="font-family:'Railway';font-size:50px;fill:rgb(0,9,171);">Hip Flask</text>
        </g>
        <g transform="matrix(0.707107,-0.707107,0.707107,0.707107,-347.913,2290.29)">
            <text x="3331.06px" y="2214.32px" style="font-family:'Railway';font-size:50px;fill:rgb(0,9,171);">Still Head 3</text>
        </g>
        <g transform="matrix(0.707107,-0.707107,0.707107,0.707107,-573.654,2299.21)">
            <text x="3331.06px" y="2214.32px" style="font-family:'Railway';font-size:50px;fill:rgb(0,9,171);">Parrot</text>
        </g>
        <g transform="matrix(1,0,0,1,-442.888,1)">
            <g transform="matrix(0.707107,-0.707107,0.707107,0.707107,-400.59,2140.24)">
                <text x="3331.06px" y="2214.32px" style="font-family:'Railway';font-size:50px;fill:rgb(0,9,171);">Water Jug</text>
            </g>
            <g transform="matrix(0.690945,0,0,1,1674.63,-125.077)">
                <rect x="2618.47" y="1473.9" width="39.801" height="28.939" style="fill:rgb(238,124,14);"/>
            </g>
        </g>
        <g transform="matrix(0.707107,-0.707107,0.707107,0.707107,-1164.04,2320.07)">
            <text x="3331.06px" y="2214.32px" style="font-family:'Railway';font-size:50px;fill:rgb(0,9,171);">Still Head 2</text>
        </g>
        <g transform="matrix(0.707107,-0.707107,0.707107,0.707107,-1428.41,2324.22)">
            <text x="3331.06px" y="2214.32px" style="font-family:'Railway';font-size:50px;fill:rgb(0,9,171);">Copper Pot Still</text>
        </g>
        <g transform="matrix(1,0,0,1,-3.70976,-1083.14)">
            <path d="M4079.13,2635.8C4079.13,2635.8 3531.27,2635.16 3347.54,2634.95C3310.26,2634.91 3275.19,2617.26 3252.93,2587.36C3235.33,2563.71 3214.51,2535.73 3198.74,2514.53C3183.46,2494 3159.37,2481.9 3133.77,2481.9L2994.9,2481.9C2962.89,2481.9 2932.24,2494.89 2909.99,2517.91C2884.39,2544.39 2849.74,2580.21 2824.2,2606.62C2802.1,2629.48 2771.73,2642.46 2739.94,2642.63C2653.36,2643.1 2484.03,2644.02 2484.03,2644.02" style="fill:none;stroke:rgb(238,124,14);stroke-width:41.67px;"/>
        </g>
        <g transform="matrix(1,0,0,1,192.2,38.6949)">
            <path d="M3930.76,1733.1L3930.76,1774.77L3904.1,1774.77L3904.1,1733.1L3930.76,1733.1ZM3850.77,1733.1L3850.77,1774.77L3797.44,1774.77L3797.44,1733.1L3850.77,1733.1ZM3744.11,1733.1L3744.11,1774.77L3690.78,1774.77L3690.78,1733.1L3744.11,1733.1ZM3637.45,1733.1L3637.45,1774.77L3587.96,1774.77L3587.96,1733.1L3637.45,1733.1ZM3542.32,1733.1L3542.32,1774.77L3496.68,1774.77L3496.68,1733.1L3542.32,1733.1ZM3451.03,1733.1L3451.03,1774.77L3405.39,1774.77L3405.39,1733.1L3451.03,1733.1ZM3359.75,1733.1L3359.75,1774.77L3314.11,1774.77L3314.11,1733.1L3359.75,1733.1ZM3268.46,1733.1L3268.46,1774.77L3222.82,1774.77L3222.82,1733.1L3268.46,1733.1ZM3177.18,1733.1L3177.18,1774.77L3131.54,1774.77L3131.54,1733.1L3177.18,1733.1ZM3085.89,1733.1L3085.89,1774.77L3040.25,1774.77L3040.25,1733.1L3085.89,1733.1ZM2994.61,1733.1L2994.61,1774.77L2948.96,1774.77L2948.96,1733.1L2994.61,1733.1ZM2903.32,1733.1L2903.32,1774.77L2857.68,1774.77L2857.68,1733.1L2903.32,1733.1ZM2812.04,1733.1L2812.04,1774.77L2766.39,1774.77L2766.39,1733.1L2812.04,1733.1ZM2720.75,1733.1L2720.75,1774.77L2675.72,1774.77L2675.72,1733.1L2720.75,1733.1ZM2631.32,1733.1L2631.32,1774.77L2586.91,1774.77L2586.91,1733.1L2631.32,1733.1ZM2542.5,1733.1L2542.5,1774.77L2498.09,1774.77L2498.09,1733.1L2542.5,1733.1ZM2453.68,1733.1L2453.68,1774.77L2409.27,1774.77L2409.27,1733.1L2453.68,1733.1ZM2364.86,1733.1L2364.86,1774.77L2320.45,1774.77L2320.45,1733.1L2364.86,1733.1ZM2276.04,1733.1L2276.04,1774.77L2231.63,1774.77L2231.63,1733.1L2276.04,1733.1ZM2187.22,1733.1L2187.22,1774.77L2142.82,1774.77L2142.82,1733.1L2187.22,1733.1ZM2098.4,1733.1L2098.4,1774.77L2053.99,1774.77L2053.99,1733.1L2098.4,1733.1ZM2009.59,1733.1L2009.59,1774.77L1965.18,1774.77L1965.18,1733.1L2009.59,1733.1ZM1920.77,1733.1L1920.77,1774.77L1876.36,1774.77L1876.36,1733.1L1920.77,1733.1ZM1831.95,1733.1L1831.95,1774.77L1809.75,1774.77L1809.75,1733.1L1831.95,1733.1Z" style="fill:rgb(0,164,167);"/>
        </g>
        <g transform="matrix(0.764729,0,0,0.764729,1053.04,339.728)">
            <g id="End-Station" serif:id="End Station">
                <path d="M4504.31,1630.38L4504.31,1753.94" style="fill:none;stroke:rgb(160,165,169);stroke-width:32.69px;"/>
            </g>
        </g>
        <g transform="matrix(1.04636,0,0,1.05295,749.676,24.7154)">
            <g id="interchange">
                <circle cx="3470.07" cy="1503.5" r="39.821" style="fill:white;stroke:black;stroke-width:11.91px;stroke-linecap:round;"/>
            </g>
        </g>
        <g transform="matrix(1.04636,0,0,1.05295,503.039,195.402)">
            <g id="interchange1" serif:id="interchange">
                <circle cx="3470.07" cy="1503.5" r="39.821" style="fill:white;stroke:black;stroke-width:11.91px;stroke-linecap:round;"/>
            </g>
        </g>
        <g transform="matrix(1.04636,0,0,1.05295,444.49,-6.65614)">
            <g id="interchange2" serif:id="interchange">
                <circle cx="3470.07" cy="1503.5" r="39.821" style="fill:white;stroke:black;stroke-width:11.91px;stroke-linecap:round;"/>
            </g>
        </g>
        <g transform="matrix(1.04636,0,0,1.05295,251.793,-8.70907)">
            <g id="interchange3" serif:id="interchange">
                <circle cx="3470.07" cy="1503.5" r="39.821" style="fill:white;stroke:black;stroke-width:11.91px;stroke-linecap:round;"/>
            </g>
        </g>
        <g transform="matrix(1.04636,0,0,1.05295,-77.9078,-10.4484)">
            <g id="interchange4" serif:id="interchange">
                <circle cx="3470.07" cy="1503.5" r="39.821" style="fill:white;stroke:black;stroke-width:11.91px;stroke-linecap:round;"/>
            </g>
        </g>
        <g transform="matrix(1.04636,0,0,1.05295,-311.395,-10.4484)">
            <g id="interchange5" serif:id="interchange">
                <circle cx="3470.07" cy="1503.5" r="39.821" style="fill:white;stroke:black;stroke-width:11.91px;stroke-linecap:round;"/>
            </g>
        </g>
        <g transform="matrix(1.04636,0,0,1.05295,-1150.61,-1.18232)">
            <g id="interchange6" serif:id="interchange">
                <circle cx="3470.07" cy="1503.5" r="39.821" style="fill:white;stroke:black;stroke-width:11.91px;stroke-linecap:round;"/>
            </g>
        </g>
        <g transform="matrix(1.04636,0,0,1.05295,-894.036,-1.18232)">
            <g id="interchange7" serif:id="interchange">
                <circle cx="3470.07" cy="1503.5" r="39.821" style="fill:white;stroke:black;stroke-width:11.91px;stroke-linecap:round;"/>
            </g>
        </g>
        <g transform="matrix(0.764729,0,0,0.764729,1053.04,339.728)">
            <g id="End-Station1" serif:id="End Station">
                <path d="M4504.31,1630.38L4504.31,1753.94" style="fill:none;stroke:rgb(160,165,169);stroke-width:32.69px;"/>
            </g>
        </g>
    </g>
</svg>
